<?xml version="1.0" encoding="UTF-8"?>
<!-- Generator: Adobe Illustrator 23.0.1, SVG Export Plug-In . SVG Version: 6.00 Build 0)  -->
<svg xmlns="http://www.w3.org/2000/svg" xmlns:xlink="http://www.w3.org/1999/xlink" id="Layer_1" x="0px" y="0px" viewBox="0 0 720 720" style="enable-background:new 0 0 720 720;" xml:space="preserve">
<style type="text/css">
	.st0{fill:#231F20;}
</style>
<g>
	<path class="st0" d="M611.76,238.76c-4.64,0-9.31-1.58-13.13-4.8c-66.24-55.92-150.53-86.72-237.36-86.72   c-86.72,0-170.94,30.73-237.14,86.53c-8.6,7.25-21.45,6.15-28.7-2.45c-7.25-8.6-6.15-21.45,2.45-28.7   c73.53-61.99,167.08-96.12,263.39-96.12c96.43,0,190.06,34.21,263.64,96.33c8.59,7.26,9.68,20.11,2.42,28.7   C623.31,236.3,617.55,238.76,611.76,238.76z"></path>
	<path class="st0" d="M158.83,315.77c-5.49,0-10.97-2.21-14.98-6.56c-7.62-8.27-7.1-21.16,1.17-28.78   c59.13-54.5,136.01-84.51,216.47-84.51c80.35,0,157.15,29.94,216.24,84.3c8.28,7.62,8.82,20.5,1.2,28.78   c-7.62,8.28-20.5,8.82-28.78,1.2c-51.56-47.43-118.56-73.55-188.67-73.55c-70.21,0-137.28,26.18-188.87,73.73   C168.72,313.98,163.77,315.77,158.83,315.77z"></path>
	<path class="st0" d="M206.45,392.16c-4.95,0-9.92-1.8-13.84-5.43c-8.25-7.65-8.74-20.54-1.09-28.78   c43.72-47.16,105.65-74.21,169.93-74.21c64.21,0,126.1,27,169.81,74.08c7.65,8.24,7.17,21.13-1.07,28.78   c-8.24,7.65-21.13,7.17-28.78-1.07c-36.03-38.8-87.04-61.06-139.96-61.06c-52.97,0-104.02,22.29-140.05,61.16   C217.37,389.97,211.92,392.16,206.45,392.16z"></path>
	<g>
		<path class="st0" d="M154.04,501.31v100.01c0,12.28-7.77,19.8-18.55,19.8s-18.55-7.52-18.55-19.8V471.74    c0-18.3,10.28-28.82,27.32-28.82c12.78,0,19.55,5.26,26.32,16.29l62.16,103.51V462.71c0-12.28,7.77-19.8,18.55-19.8    c10.78,0,18.55,7.52,18.55,19.8V592.3c0,18.3-10.28,28.82-27.32,28.82c-12.78,0-19.55-5.26-26.32-16.29L154.04,501.31z"></path>
		<path class="st0" d="M345.41,550.44v50.88c0,12.28-8.02,19.8-18.8,19.8s-18.55-7.52-18.55-19.8V468.23    c0-15.04,8.77-23.81,23.81-23.81h81.46c11.28,0,18.3,7.27,18.3,17.3c0,9.77-7.02,17.04-18.3,17.04h-67.92v37.85h62.41    c11.03,0,18.05,7.27,18.05,17.04c0,9.27-7.02,16.79-18.05,16.79H345.41z"></path>
		<path class="st0" d="M598.37,488.78c-6.77,8.02-16.79,9.02-26.57,1c-10.27-9.02-22.56-13.53-37.09-13.53    c-13.78,0-25.82,5.01-36.34,15.04c-10.28,9.77-15.54,23.31-15.54,40.35c0,17.29,5.26,31.08,15.54,41.1    c10.28,10.03,23.06,15.04,38.35,15.04c14.28,0,26.82-4.51,37.85-13.78c9.77-7.77,19.8-6.77,26.57,1    c7.02,7.27,6.27,18.3-2.76,26.32c-16.04,14.29-36.34,21.3-60.66,21.3c-26.82,0-49.13-8.27-66.92-24.81    c-17.54-16.54-26.32-38.35-26.32-65.42c0-27.32,8.77-49.38,26.32-65.92c17.55-16.79,39.35-25.06,65.67-25.06    c22.81,0,42.61,7.02,59.15,21.05C604.64,470.48,605.39,481.51,598.37,488.78z"></path>
	</g>
</g>
</svg>
